<svg width="24" height="28" viewBox="0 0 24 28" fill="none" xmlns="http://www.w3.org/2000/svg">
<path d="M21.729 28C21.3874 27.9998 21.0503 27.9289 20.7428 27.7925C20.4352 27.6561 20.165 27.4578 19.9525 27.2122C19.2946 26.5599 14.2106 21.9735 11.0952 19.1772C10.8796 18.9864 10.7073 18.7582 10.5881 18.5059C10.4689 18.2536 10.4052 17.9821 10.4007 17.7071C10.3963 17.4321 10.4511 17.159 10.562 16.9035C10.673 16.648 10.8378 16.4153 11.0471 16.2185C11.2564 16.0219 11.5061 15.8651 11.7816 15.7574C12.0571 15.6496 12.3532 15.5931 12.6526 15.5909C12.9521 15.5886 13.249 15.6409 13.5264 15.7445C13.8038 15.8483 14.0561 16.0013 14.2688 16.1949C14.291 16.2149 16.5348 18.229 18.7617 20.241L19.4595 20.8716V11.0777C19.4595 7.26888 16.1133 4.17018 12 4.17018C7.88674 4.17018 4.54054 7.26888 4.54054 11.0777V25.9147C4.54054 26.4677 4.30135 26.9981 3.87559 27.3891C3.44984 27.7801 2.87238 27.9998 2.27026 27.9998C1.66815 27.9998 1.0907 27.7801 0.664946 27.3891C0.239189 26.9981 0 26.4677 0 25.9147V11.0777C0 4.96938 5.38316 0 12 0C18.6168 0 24 4.96938 24 11.0777V25.9147C23.9997 26.4677 23.7604 26.9981 23.3345 27.3892C22.9087 27.7803 22.3312 27.9999 21.729 28ZM19.665 26.7811L19.666 26.783L19.665 26.7811Z" fill="#B4B6BB"/>
</svg>
